<?xml version="1.0" encoding="iso-8859-1"?>
<!-- Generator: Adobe Illustrator 19.0.0, SVG Export Plug-In . SVG Version: 6.00 Build 0)  -->
<svg xmlns="http://www.w3.org/2000/svg" xmlns:xlink="http://www.w3.org/1999/xlink" version="1.1" id="Capa_1" x="0px" y="0px" viewBox="0 0 512 512" style="enable-background:new 0 0 512 512;" xml:space="preserve">
<path style="fill:#4BC999;" d="M512,256c0,22.612-2.936,44.544-8.443,65.432c-7.555,28.693-19.978,55.411-36.321,79.224  c-2.518,3.668-5.13,7.272-7.826,10.794c-7.534,9.843-15.768,19.132-24.618,27.763c-11.086,10.825-23.134,20.637-36.028,29.309  c-5.413,3.647-10.982,7.095-16.687,10.324C344.869,499.952,301.84,512,256,512s-88.869-12.048-126.077-33.155  c-5.13-2.905-10.156-5.987-15.057-9.226c-24.869-16.468-46.696-37.157-64.449-61.053c-1.933-2.602-3.824-5.235-5.653-7.91  c-3.814-5.548-7.408-11.264-10.783-17.126c-9.665-16.781-17.471-34.753-23.155-53.656C3.783,306.489,0,281.684,0,256  s3.783-50.489,10.825-73.874C30.762,115.858,76.831,60.918,137.049,29.257c23.437-12.319,49.027-21.117,76.048-25.673  C227.046,1.223,241.382,0,256,0c42.945,0,83.414,10.574,118.951,29.257c5.172,2.717,10.23,5.601,15.182,8.662  c55.192,34.001,96.486,88.388,113.424,152.649C509.064,211.456,512,233.388,512,256z"/>
<path style="fill:#5C5E70;" d="M503.557,62.837v261.381c-7.555,28.693-19.978,55.411-36.321,79.224H44.763  c-14.733-21.462-26.269-45.286-33.938-70.781V62.837c0-17,13.782-30.793,30.783-30.793h431.167  C489.775,32.044,503.557,45.837,503.557,62.837z"/>
<path style="fill:#E8DBC4;" d="M476.108,45.08H38.275c-8.142,0-14.741,6.6-14.741,14.741v223.053c0,8.142,6.6,14.741,14.741,14.741  h437.833c8.142,0,14.741-6.6,14.741-14.741V59.821C490.849,51.68,484.25,45.08,476.108,45.08z"/>
<rect x="83.592" y="70.987" style="fill:#FCF8F2;" width="219.429" height="135.837"/>
<path style="fill:#5C5E70;" d="M503.557,301.084v23.134c-7.555,28.693-19.978,55.411-36.321,79.224H44.763  c-14.733-21.462-26.269-45.286-33.938-70.781v-31.577H503.557z"/>
<path style="fill:#494B5B;" d="M269.916,369.903c-15.332,0-27.76-12.429-27.76-27.76c0-4.381,1.019-8.524,2.826-12.209  c-9.21,4.518-15.551,13.984-15.551,24.933c0,15.332,12.429,27.76,27.76,27.76c10.949,0,20.415-6.341,24.933-15.551  C278.44,368.884,274.297,369.903,269.916,369.903z"/>
<g>
	<polygon style="fill:#5C5E70;" points="279.751,150.138 299.956,240.286 315.499,198.321 354.355,198.321  "/>
	<rect x="160.413" y="403.446" style="fill:#5C5E70;" width="193.557" height="75.797"/>
</g>
<rect x="160.413" y="403.446" style="fill:#494B5B;" width="193.557" height="20.27"/>
<path style="fill:#797B89;" d="M398.764,471.309c-5.413,3.647-10.982,7.095-16.687,10.324H129.923  c-5.13-2.905-10.156-5.987-15.057-9.226c10.136-15.287,27.376-24.785,46.174-24.785h192.303c11.16,0,21.786,3.354,30.689,9.279  C389.747,460.703,394.762,465.582,398.764,471.309z"/>
<circle style="fill:#FF525D;" cx="104.49" cy="90.843" r="8.359"/>
<circle style="fill:#FFD15C;" cx="131.135" cy="90.843" r="8.359"/>
<circle style="fill:#4BC999;" cx="157.78" cy="90.843" r="8.359"/>
<g>
</g>
<g>
</g>
<g>
</g>
<g>
</g>
<g>
</g>
<g>
</g>
<g>
</g>
<g>
</g>
<g>
</g>
<g>
</g>
<g>
</g>
<g>
</g>
<g>
</g>
<g>
</g>
<g>
</g>
</svg>
