<?xml version="1.0" encoding="iso-8859-1"?>
<!-- Generator: Adobe Illustrator 19.0.0, SVG Export Plug-In . SVG Version: 6.00 Build 0)  -->
<svg xmlns="http://www.w3.org/2000/svg" xmlns:xlink="http://www.w3.org/1999/xlink" version="1.1" id="Capa_1" x="0px" y="0px" viewBox="0 0 512 512" style="enable-background:new 0 0 512 512;" xml:space="preserve">
<path style="fill:#FFD15C;" d="M511.999,255.999c0,17.606-1.776,34.805-5.172,51.419c-2.853,14.033-6.865,27.648-11.922,40.751v0.01  c-10.574,27.418-25.757,52.537-44.565,74.459c-6.154,7.168-12.695,13.981-19.592,20.428c-4.869,4.556-9.916,8.913-15.13,13.082  c-43.771,34.952-99.255,55.85-159.618,55.85s-115.848-20.898-159.618-55.85c-5.214-4.169-10.261-8.526-15.13-13.082  c-6.896-6.447-13.437-13.26-19.592-20.428C23.217,377.866,0.001,319.634,0.001,255.999c0-7.92,0.355-15.757,1.066-23.5  c2.57-28.212,9.707-55.108,20.689-79.935c10.198-23.061,23.698-44.324,39.905-63.206C108.606,34.659,178.259,0,256,0  s147.393,34.659,194.34,89.359c11.797,13.74,22.162,28.756,30.856,44.795c4.671,8.6,8.85,17.492,12.518,26.645  C505.511,190.234,511.999,222.364,511.999,255.999z"/>
<path style="fill:#5C5E70;" d="M450.336,24.87V422.64c-46.947,54.7-116.6,89.359-194.34,89.359s-147.393-34.659-194.34-89.359V24.87  c0-13.73,11.128-24.869,24.869-24.869h338.943C439.198,0.001,450.336,11.14,450.336,24.87z"/>
<path style="fill:#E8DBC4;" d="M430.748,85.462v357.605c-6.416,5.987-13.134,11.661-20.135,16.98  c-42.956,32.601-96.527,51.952-154.613,51.952s-111.658-19.351-154.613-51.952c-7.001-5.319-13.719-10.992-20.135-16.98V85.462  c0-8.192,6.635-14.827,14.827-14.827h319.843c0.899,0,1.776,0.084,2.623,0.24C425.481,72.108,430.748,78.169,430.748,85.462z"/>
<path style="fill:#494B5B;" d="M321.821,45.555h-131.65c-6.059,0-10.97-4.912-10.97-10.97l0,0c0-6.059,4.912-10.97,10.97-10.97  h131.651c6.059,0,10.97,4.912,10.97,10.97l0,0C332.792,40.643,327.88,45.555,321.821,45.555z"/>
<path style="fill:#FF525D;" d="M410.612,104.406v55.526c0,8.098-6.562,14.66-14.66,14.66H116.035  c-8.098,0-14.649-6.562-14.649-14.66v-55.526c0-8.087,6.551-14.649,14.649-14.649h279.917  C404.05,89.757,410.612,96.318,410.612,104.406z"/>
<path style="fill:#C69A6A;" d="M410.612,362.516v97.531c-42.956,32.601-96.527,51.952-154.613,51.952  s-111.658-19.351-154.613-51.952v-97.531c0-7.064,5.726-12.779,12.779-12.779h283.658  C404.887,349.737,410.612,355.453,410.612,362.516z"/>
<path style="fill:#4BC999;" d="M410.612,211.612v99.746c0,8.098-6.562,14.66-14.66,14.66H282.968c-8.098,0-14.66-6.562-14.66-14.66  v-99.746c0-8.098,6.562-14.66,14.66-14.66h112.985C404.05,196.952,410.612,203.514,410.612,211.612z"/>
<path style="fill:#34ABE0;" d="M229.028,326.013H116.035c-8.093,0-14.654-6.561-14.654-14.654v-99.75  c0-8.093,6.561-14.654,14.654-14.654h112.994c8.093,0,14.654,6.561,14.654,14.654v99.75  C243.682,319.452,237.122,326.013,229.028,326.013z"/>
<g>
</g>
<g>
</g>
<g>
</g>
<g>
</g>
<g>
</g>
<g>
</g>
<g>
</g>
<g>
</g>
<g>
</g>
<g>
</g>
<g>
</g>
<g>
</g>
<g>
</g>
<g>
</g>
<g>
</g>
</svg>
