<svg width="352" height="297" viewBox="0 0 352 297" fill="none" xmlns="http://www.w3.org/2000/svg">
<path fill-rule="evenodd" clip-rule="evenodd" d="M290.596 205.555C285.688 238.97 262.939 280.75 229.243 283.051C190.045 285.728 173.498 226.995 135.741 216.129C115.51 210.307 99.7602 242.169 78.8451 239.769C53.108 236.816 22.9503 226.005 13.0748 202.055C3.23086 178.182 24.8493 153.642 33.2647 129.228C41.2086 106.182 44.4722 81.4891 60.8557 63.4392C79.5281 42.8676 102.944 22.1739 130.724 21.8558C158.418 21.5386 179.329 44.8829 201.233 61.8316C221.789 77.7376 239.915 94.8923 253.64 116.965C270.958 144.819 295.363 173.104 290.596 205.555Z" fill="#D1C2A5" fill-opacity="0.22"/>
<path fill-rule="evenodd" clip-rule="evenodd" d="M303.306 206.723C313.446 208.881 322.043 187.707 330.616 193.526C339.055 199.255 323.88 213.684 327.561 223.186C331.661 233.77 355.474 236.079 351.169 246.581C346.699 257.485 325.061 241.166 316.758 249.539C305.378 261.017 316.979 286.225 303.306 294.855C292.074 301.945 278.271 287.97 266.998 280.947C254.863 273.386 240.733 266.363 235.963 252.9C231.157 239.334 236.845 224.583 242.311 211.268C247.423 198.818 252.545 180.773 265.986 179.771C281.681 178.601 287.913 203.447 303.306 206.723Z" fill="#E1CE63" fill-opacity="0.26"/>
<path fill-rule="evenodd" clip-rule="evenodd" d="M103.886 179.978C115.238 186.856 109.535 207.805 120.715 214.959C133.253 222.982 165.39 203.718 164.147 218.539C162.668 236.159 133.005 232.833 118.379 242.797C115.418 244.815 115.816 249.205 114.344 252.47C110.863 260.187 110.44 269.566 103.886 274.932C91.7763 284.848 76.0951 302.784 62.614 294.828C49.7496 287.235 61.6166 265.953 63.6126 251.163C64.7488 242.744 72.041 236.131 71.6809 227.643C70.9511 210.439 50.8858 192.769 60.5297 178.495C68.8212 166.223 91.2122 172.299 103.886 179.978Z" fill="#B8604A" fill-opacity="0.22"/>
</svg>
