<svg width="327" height="342" viewBox="0 0 327 342" fill="none" xmlns="http://www.w3.org/2000/svg">
<path d="M322.65 170.091C320.834 164.772 318.135 159.422 315.702 154.34C313.22 149.169 309.821 144.462 306.955 139.517C304.139 134.652 301.323 129.317 297.54 125.155C294.541 121.871 290.859 119.842 287.127 117.703C286.443 116.857 285.76 115.996 285.094 115.129C279.195 107.316 270.464 101.756 261.833 97.6041C259.567 96.5115 257.201 96.1222 254.802 96.001C252.652 95.89 250.469 95.9942 248.287 95.9942C247.937 95.9942 247.587 95.9942 247.254 96.001C242.088 96.0915 237.123 96.7949 231.974 97.348C229.442 97.6195 226.876 98.1349 224.343 98.2988C221.411 98.4865 218.461 98.0973 215.529 98.2988C213.213 98.4558 210.963 99.0994 208.631 99.2035C205.848 99.3384 203.199 99.3914 200.483 100.223C198.133 100.94 196.134 101.742 193.651 101.733C190.485 101.727 187.653 102.056 184.604 103.014C179.222 104.706 173.74 106.658 168.541 108.91C158.91 113.101 149.813 118.444 142.048 125.665C140.265 127.311 138.366 129.138 136.783 130.978C134.967 133.073 134.25 135.744 132.617 137.922C129.168 142.503 125.203 146.431 122.087 151.325C120.754 153.404 119.737 155.463 118.904 157.798C117.971 160.408 116.488 162.706 115.505 165.303C113.622 170.241 112.373 175.892 111.206 181.054C109.94 186.756 111.373 191.522 111.69 197.166C112.023 203.241 112.373 209.235 112.839 215.297C113.722 226.873 115.022 237.723 119.487 248.492C121.604 253.611 124.586 257.988 128.119 262.208C129.568 263.951 131.584 264.842 133.117 266.444C134.8 268.217 135.533 269.766 137.833 270.949C139.749 271.935 140.215 273.441 141.598 275.095C143.231 277.062 145.497 278.349 147.563 279.786C152.112 282.958 156.111 286.729 160.51 290.113C164.792 293.419 169.224 297.117 173.806 299.945C178.105 302.595 183.154 303.701 187.686 305.82C192.602 308.117 198.8 308.812 204.182 308.865C205.332 308.872 206.481 308.918 207.614 308.978C211.763 310.077 216.079 310.437 220.444 310.28C220.944 310.347 221.46 310.414 221.96 310.482C232.591 311.859 243.038 311.941 253.202 308.02C258.217 306.089 262.833 303.179 267.248 299.93C269.565 298.913 271.881 297.873 274.263 297.064C279.345 295.33 283.527 292.514 287.443 288.803C291.409 285.048 295.891 282.175 299.457 277.944C302.939 273.799 305.688 269.16 308.887 264.798C311.937 260.614 316.085 257.584 318.502 252.869C320.868 248.282 322.484 243.075 323.334 237.964C323.783 235.217 323.434 232.605 323.567 229.867C323.584 229.785 323.6 229.71 323.6 229.635C325.916 221.83 327.033 213.853 326.999 205.524C326.966 193.432 326.566 181.6 322.65 170.091Z" fill="#EFBA89"/>
<path d="M218.578 6.09469C218.595 5.89155 218.595 5.69194 218.611 5.48537C218.611 5.34709 218.578 5.22072 218.578 5.08927C218.578 4.95099 218.578 4.81277 218.578 4.6745C218.661 -1.20308 211.213 -1.38752 209.414 3.2763C207.464 5.99572 206.748 10.0091 205.332 12.9368C203.832 16.0557 201.716 18.7478 199.466 21.3443C195.834 24.7158 192.268 28.1522 188.719 31.6296C186.653 33.6559 184.77 35.9247 182.654 37.8895C180.755 39.6462 178.622 41.0734 176.739 42.859C174.956 44.5541 172.774 45.5886 171.024 47.3145C169.058 49.2503 166.992 50.9284 164.959 52.7772C160.81 56.5431 155.628 59.4008 152.012 63.759C150.313 65.828 148.897 68.0781 147.014 69.9986C144.948 72.0984 142.848 74.1622 141.382 76.7707C137.633 83.4557 136.617 91.0249 136.25 98.6983C134.967 100.759 134.334 102.959 133.884 105.93C133.068 111.317 133.051 117.041 133.551 122.47C134.101 128.213 136.9 144.08 145.714 138.851C145.897 138.749 146.047 138.636 146.214 138.525C146.797 138.293 147.347 137.943 147.814 137.472C148.563 136.729 149.796 136.371 150.63 135.659C151.746 134.708 152.629 133.523 153.712 132.54C156.245 130.247 159.244 128.448 162.043 126.497C167.025 122.992 172.44 120.051 177.239 116.268C179.339 114.61 181.121 112.797 182.771 110.739C184.104 110.353 185.187 109.291 185.52 107.389C185.537 107.3 185.554 107.217 185.57 107.128C187.087 105.291 188.653 103.511 190.002 101.565C191.635 99.2224 192.718 96.6259 194.535 94.4016C196.301 92.2131 198.217 90.1595 199.816 87.8174C203.316 82.6824 205.232 75.9649 207.548 70.2C208.847 66.9514 210.314 63.7641 211.247 60.3738C212.113 57.2259 212.43 53.9534 213.28 50.8004C214.029 48.0485 213.863 45.2234 214.596 42.5364C215.496 39.2161 216.579 36.8448 216.479 33.3025C216.395 30.3066 217.628 27.6521 218.195 24.7278C218.561 22.8688 218.745 21.0626 218.695 19.2531C218.711 19.0738 218.745 18.8947 218.745 18.7154C219.011 14.5143 218.611 10.301 218.578 6.09469Z" fill="#36382D"/>
<path d="M71.7668 175.67C75.999 176.112 80.0812 175.388 84.1968 173.725C89.1289 171.738 93.7277 168.739 97.9266 165.451C102.126 162.156 105.658 158.134 109.74 154.744C111.723 153.107 114.006 151.97 116.105 150.545C118.255 149.099 119.754 147.033 122.27 146.27C126.536 144.976 130.701 148.076 135.034 146.188C137.533 145.099 138.416 142.381 137.633 139.844C136.333 135.684 131.201 133.446 127.502 132.096C127.352 132.041 127.219 131.978 127.069 131.922C122.054 129.19 117.205 126.188 112.223 123.39C107.507 120.735 102.175 117.469 96.8935 116.223C91.8449 115.032 87.4293 117.722 82.9805 119.801C77.6819 122.283 72.4166 124.716 67.0347 127.029C64.7853 127.997 62.536 129.209 60.4698 130.544C59.7034 131.036 58.7536 131.99 57.8872 132.314C56.8208 132.715 55.5544 132.572 54.438 133.013C53.0717 133.559 51.9886 134.505 50.9222 135.495C49.256 136.186 47.6064 136.905 46.0068 137.683C41.2081 140.006 37.5424 143.395 33.4268 146.717C30.3776 149.165 27.0618 151.343 24.0126 153.803C22.2297 154.572 20.5635 155.541 19.1805 157.057C16.2646 160.258 19.264 164.194 22.6131 164.814C27.2119 166.381 32.044 166.289 36.5594 168.136C41.0749 169.982 45.7736 171.351 50.339 173.07C52.4718 173.875 54.6212 174.162 56.8373 174.623C59.1367 175.101 61.1862 176.407 63.5022 176.812C66.3015 177.298 69.0675 176.595 71.7668 175.67Z" fill="#36382D"/>
<path d="M175.29 145.108C173.173 143.339 170.024 142.011 167.408 141.256C167.175 141.191 166.958 141.145 166.725 141.094C165.275 140.449 163.759 140.027 162.126 139.998C159.11 139.944 155.211 140.698 153.095 143.119C152.162 143.443 151.429 143.89 150.713 144.804C150.029 145.674 149.779 146.734 149.163 147.629C148.313 148.856 147.163 149.623 146.614 151.088C146.414 151.617 146.297 152.105 146.247 152.673C146.18 153.423 146.28 153.501 146.164 153.877C145.797 155.113 145.214 155.96 145.164 157.359C145.131 158.02 145.181 158.713 145.281 159.396C144.014 161.851 142.898 164.135 143.531 167.088C143.714 167.896 144.164 168.454 144.731 168.794C144.764 169.239 144.847 169.692 144.997 170.152C147.147 177.29 156.444 178.116 162.293 176.486C165.392 175.624 168.208 174.316 170.391 171.849C172.474 169.511 173.923 166.713 175.256 163.891C176.673 160.934 177.689 157.996 177.472 154.705C177.889 151.197 177.856 147.25 175.29 145.108Z" fill="#663C29"/>
<path d="M187.531 296.738C180.162 307.528 168.029 316.702 157.685 324.197C136.999 339.192 112.61 339.618 88.2572 341.578C82.9744 342.002 77.8275 341.775 72.6929 341.209C56.5979 340.668 40.5029 338.738 24.5559 336.664C18.3722 335.87 4.43719 333.71 0.94417 326.84C-2.63525 319.854 4.8938 312.128 8.02887 306.448C9.31253 304.12 10.5592 301.82 11.8306 299.493C22.1491 280.239 31.937 260.645 43.7367 242.244C50.4759 231.709 56.7089 221.826 62.8927 210.836C65.5464 206.038 67.188 200.358 73.0632 200.018C75.4454 199.875 78.0003 200.613 80.5676 201.778C83.5916 202.829 86.7267 204.958 89.5656 207.173C93.1944 209.7 96.6009 212.313 99.304 213.819C108.882 219.101 117.633 224.382 126.137 231.367C143.43 245.566 161.29 259.82 177.78 275.243C179.989 277.343 182.211 279.444 184.371 281.574C189.999 287.111 192.048 290.12 187.531 296.738Z" fill="#A34A38"/>
<path d="M187.531 296.738C180.162 307.528 168.029 316.702 157.685 324.197C136.999 339.192 112.61 339.618 88.2572 341.578C82.9744 342.002 77.8275 341.775 72.6929 341.209C56.5979 340.668 40.5029 338.738 24.5559 336.664C18.3722 335.87 4.43719 333.71 0.94417 326.84C-2.63525 319.854 4.8938 312.128 8.02887 306.448C9.31253 304.12 10.5592 301.82 11.8306 299.493C20.4335 302.275 29.4066 307.159 34.8745 308.381C59.2022 313.692 83.3447 314.06 107.265 309.204C107.574 309.147 107.907 309.064 108.216 309.004C113.609 307.869 118.991 306.478 124.372 304.831C134.851 301.566 145.133 297.25 155.081 292.593C159.204 290.66 163.005 288.249 166.609 285.492C170.411 282.284 174.064 278.848 177.78 275.243C179.989 277.343 182.211 279.444 184.371 281.574C189.999 287.111 192.048 290.12 187.531 296.738Z" fill="#191312"/>
<path d="M52.5502 275.616C51.9657 273.271 50.9876 271.209 50.093 268.992C49.3058 267.009 49.1984 264.471 47.5403 263.016C47.0751 262.604 46.5145 262.478 46.0135 262.552C45.0474 262.452 44.0693 263.035 44.0574 264.335C44.0574 264.379 44.0454 264.423 44.0454 264.467C41.5166 268.469 38.6777 278.19 42.2323 281.777C43.3177 284.364 45.2263 286.202 48.2323 285.11C52.3237 283.618 53.576 279.734 52.5502 275.616Z" fill="#191312"/>
<path d="M90.3023 234.497C90.2314 231.794 89.4993 229.058 88.6727 226.499C88.1296 224.799 87.6808 222.936 87.0196 221.258C87.0078 221.07 86.9723 220.873 86.9015 220.661C86.7952 220.379 86.6889 220.097 86.5826 219.816C85.9804 218.24 83.7486 218.027 83.1582 219.437C83.0047 219.541 82.8748 219.668 82.7685 219.822C82.4143 220.128 82.1663 220.577 82.1191 221.171C81.8121 225.08 81.3633 229.06 81.5641 232.982C81.3751 239.327 82.2489 245.506 86.618 244.333C90.2786 243.349 90.3967 237.518 90.3023 234.497Z" fill="#191312"/>
<path d="M107.807 286.454C106.69 284.018 104.935 281.82 103.155 279.82C101.977 278.493 100.835 276.974 99.5467 275.714C99.4731 275.546 99.3626 275.38 99.2031 275.219C98.9944 275.005 98.7857 274.792 98.577 274.579C97.3988 273.383 95.1773 274.108 95.1528 275.638C95.0546 275.794 94.9808 275.965 94.9318 276.152C94.7108 276.574 94.6495 277.088 94.8336 277.65C96.0487 281.345 97.1534 285.166 98.8717 288.665C101.142 294.537 104.358 299.826 108.077 296.957C111.207 294.552 109.059 289.18 107.807 286.454Z" fill="#191312"/>
<path d="M140.433 259.81C140.24 257.107 139.384 254.4 138.443 251.873C137.816 250.196 137.286 248.349 136.538 246.699C136.514 246.51 136.478 246.315 136.381 246.105C136.261 245.829 136.14 245.552 136.02 245.274C135.356 243.723 133.065 243.61 132.523 245.048C132.378 245.16 132.245 245.293 132.137 245.452C131.787 245.774 131.558 246.234 131.534 246.831C131.377 250.761 131.088 254.766 131.449 258.685C131.522 265.047 132.655 271.196 137.069 269.824C140.771 268.676 140.65 262.831 140.433 259.81Z" fill="#191312"/>
</svg>
