<svg width="1440" height="724" viewBox="0 0 1440 724" fill="none" xmlns="http://www.w3.org/2000/svg">
<path fill-rule="evenodd" clip-rule="evenodd" d="M199.889 635.834C201.806 636.004 203.722 636.183 205.633 636.381C210.89 636.925 216.103 637.655 221.186 638.774C218.715 647.674 215.779 656.508 212.718 665.301C208.775 676.62 204.562 687.879 200.349 699.138C197.294 707.304 194.238 715.47 191.285 723.66C191.253 723.661 191.22 723.663 191.188 723.664C191.07 723.67 190.951 723.676 190.835 723.673C186.34 723.573 181.882 723.191 177.479 722.644C166.47 721.273 155.847 718.668 145.334 715.801C132.093 713.338 118.903 710.607 106.31 706.568C104.569 706.009 102.843 705.42 101.123 704.813C94.4579 703.673 87.9908 702.072 81.7256 699.907C68.4839 695.334 56.2173 689.094 44.6989 681.828C29.0551 674.383 13.8962 665.869 0 655.953V482.714C2.45172 486.412 4.95349 490.077 7.50244 493.711C15.6973 505.387 23.9441 516.179 32.8099 526.959C49.9698 547.821 67.9061 568.615 89.7368 585.344C91.0211 586.327 92.3214 587.301 93.6273 588.26C94.2315 588.702 94.8372 589.141 95.4455 589.577C95.4795 589.602 95.508 589.623 95.5341 589.642C95.5524 589.656 95.5694 589.668 95.5862 589.68C95.9365 589.929 96.2896 590.175 96.6425 590.422C99.2015 592.2 101.798 593.933 104.437 595.616C109.832 599.062 115.384 602.305 121.069 605.358C126.722 608.392 132.508 611.239 138.398 613.912C141.511 615.328 144.656 616.694 147.826 618.018C149.361 618.66 150.904 619.295 152.455 619.909L152.473 619.916C153.091 620.158 153.709 620.399 154.331 620.636C154.524 620.707 155.28 620.988 155.62 621.116L155.95 621.234C156.141 621.303 156.322 621.368 156.365 621.382C156.695 621.5 157.025 621.616 157.357 621.73C158.027 621.963 158.695 622.192 159.366 622.419C160.731 622.879 162.104 623.328 163.474 623.773C166.387 624.713 169.309 625.62 172.234 626.527L172.682 626.666L173.729 626.99C179.55 628.792 185.372 630.594 191.103 632.591C194.061 633.62 196.998 634.693 199.889 635.834Z" fill="#2AB6C9"/>
<path fill-rule="evenodd" clip-rule="evenodd" d="M11.3193 125.868C32.6385 132.458 55.0804 136.5 78.0223 137.271C82.357 137.411 86.7501 137.445 91.1404 137.326C91.2106 125.566 90.2372 113.89 88.2206 102.297C84.3918 80.0662 77.3106 58.8748 69.5353 38.119C64.6975 25.2122 59.4565 12.4802 53.7454 0H64.355C73.673 20.8144 81.7723 42.2734 88.6659 64.2017C94.6877 83.3604 99.0112 103.262 100.224 123.811C100.494 128.187 100.579 132.527 100.534 136.883C137.121 134.413 174.463 122.355 201.862 93.9951C206.246 89.4644 212.149 95.8945 207.796 100.396C199.94 108.562 191.065 115.698 181.482 121.669C156.546 137.248 128.308 144.453 100.198 146.238C98.5425 174.332 90.8077 202.19 77.9093 228.906C59.3609 267.32 33.5337 302.48 7.88672 337H0V332.928C6.63751 323.953 13.2675 314.983 19.7756 305.924C42.6018 274.11 65.0212 240.904 78.6119 204.709C85.8146 185.507 89.8235 166.042 90.8638 146.626C75.0214 146.966 59.3531 145.689 44.4686 143.322C29.1481 140.872 14.322 137.025 0 132.041V122.046C3.72974 123.411 7.50189 124.689 11.3193 125.868Z" fill="#FF4949"/>
<path fill-rule="evenodd" clip-rule="evenodd" d="M1440 272.854C1427.04 272.093 1413.94 271.922 1401.01 271.753C1396.08 271.689 1391.18 271.625 1386.32 271.528C1344.32 270.694 1301.07 270.901 1258.53 284.202C1236.98 290.935 1216.21 301.538 1197.68 316.795C1188.76 324.138 1180.29 332.59 1173.49 342.288C1173.46 342.323 1173.42 342.357 1173.39 342.392C1173.33 342.454 1173.27 342.516 1173.21 342.581C1162.54 354.476 1154.71 368.899 1151.52 384.384C1148.6 398.602 1148.74 412.725 1150.26 426.445C1153.16 452.629 1161.59 477.617 1172.72 499.774C1184.15 522.521 1198.77 541.918 1217.25 557.966C1227.26 566.648 1237.7 574.686 1248.47 582.232C1266.49 598.805 1285.63 614.058 1305.57 628.044C1346.64 656.853 1391.58 681.216 1440 696.111V648.027C1439.59 647.884 1439.19 647.739 1438.79 647.594C1436.23 646.676 1433.68 645.726 1431.15 644.748C1430.03 644.313 1428.92 643.872 1427.8 643.429C1427.63 643.354 1426.71 642.977 1425.98 642.679C1425.64 642.54 1425.35 642.417 1425.19 642.351C1420.08 640.215 1415.01 637.977 1409.98 635.652C1400.34 631.2 1390.84 626.442 1381.42 621.555C1377.15 619.338 1372.88 617.129 1368.6 614.919C1348.4 604.477 1328.19 594.028 1308.4 582.858C1294.77 575.169 1280.75 566.749 1267.53 557.725C1264.41 554.818 1261.34 551.867 1258.27 548.916C1253.49 544.33 1248.71 539.743 1243.79 535.323C1242.76 534.404 1241.74 533.487 1240.71 532.569C1233 525.684 1225.28 518.788 1218.31 511.043C1214.57 506.874 1211.07 502.457 1207.91 497.728C1207.83 497.602 1207.56 497.168 1207.29 496.721C1207.02 496.285 1206.74 495.838 1206.63 495.658C1205.84 494.291 1205.08 492.902 1204.35 491.49C1202.85 488.591 1201.49 485.6 1200.28 482.518C1197.02 474.212 1194.6 464.008 1192.18 453.819C1191.98 452.969 1191.78 452.12 1191.58 451.271C1188.79 439.582 1186.41 427.683 1185.07 415.472C1184.75 412.555 1184.49 409.62 1184.31 406.665C1184.27 405.991 1184.23 405.316 1184.2 404.637C1184.19 404.604 1184.19 404.434 1184.18 404.222C1184.17 404.101 1184.17 403.965 1184.16 403.835C1184.16 403.699 1184.16 403.554 1184.16 403.424C1184.15 403.217 1184.15 403.049 1184.15 403.017C1184.14 402.754 1184.14 402.491 1184.14 402.229C1184.13 401.373 1184.13 400.519 1184.13 399.661C1184.17 393.783 1184.57 387.84 1185.5 381.901C1185.6 381.255 1185.83 379.983 1185.88 379.668L1185.94 379.419C1186.12 378.586 1186.31 377.751 1186.52 376.922C1187.26 374.05 1188.15 371.192 1189.2 368.391C1189.37 367.95 1189.54 367.514 1189.72 367.078C1189.86 366.726 1190 366.375 1190.14 366.021C1190.15 365.998 1190.16 365.962 1190.18 365.92C1190.46 365.379 1191.21 363.838 1191.39 363.49C1192.1 362.166 1192.9 360.918 1193.71 359.68C1193.78 359.605 1193.85 359.53 1193.93 359.456C1194.02 359.36 1194.11 359.265 1194.21 359.172C1195.41 357.984 1196.64 356.836 1197.9 355.723C1198.35 355.329 1198.8 354.939 1199.25 354.554C1199.26 354.55 1199.26 354.545 1199.27 354.541C1199.27 354.534 1199.28 354.526 1199.3 354.518C1202.01 352.409 1204.78 350.419 1207.62 348.571C1210.32 346.818 1213.07 345.177 1215.84 343.636C1217.14 342.915 1218.45 342.219 1219.77 341.541C1220.5 341.154 1221.25 340.78 1221.99 340.411C1222.25 340.289 1222.74 340.057 1223.03 339.92C1234.95 334.458 1247.14 330.237 1259.4 326.569C1269.55 323.532 1279.73 320.77 1289.94 318.278C1295.44 316.933 1300.95 315.666 1306.46 314.483C1307.7 314.214 1308.95 313.95 1310.2 313.69C1310.7 313.586 1311.2 313.484 1311.7 313.381L1312.06 313.308C1312.13 313.293 1312.21 313.277 1312.3 313.262C1315.26 312.679 1318.23 312.11 1321.18 311.576C1339.87 308.185 1358.6 305.775 1377.21 304.618C1378.52 305.038 1379.93 305.285 1381.44 305.333C1388.44 305.554 1395.44 305.723 1402.45 305.892C1408.94 306.049 1415.43 306.206 1421.91 306.403C1427.95 306.588 1433.98 306.813 1440 307.126V272.854Z" fill="#FFD866"/>
</svg>
