<svg width="834" height="506" viewBox="0 0 834 506" fill="none" xmlns="http://www.w3.org/2000/svg">
<path d="M757.119 394.634C753.128 390.908 749.266 387.036 745.204 383.391C740.83 379.468 736.382 375.61 732.419 371.205C730.539 369.113 728.781 366.896 727.195 364.522C727.125 364.397 726.664 363.666 726.557 363.483C726.159 362.797 725.778 362.1 725.41 361.391C724.657 359.937 723.976 358.435 723.369 356.889C721.594 352.372 720.317 346.737 719 341.206C717.601 335.339 716.408 329.367 715.735 323.238C715.576 321.775 715.444 320.301 715.354 318.818C715.332 318.48 715.313 318.141 715.295 317.8C715.292 317.774 715.286 317.577 715.279 317.398C715.275 317.221 715.273 317.014 715.27 316.988C715.267 316.425 715.26 315.866 715.264 315.303C715.283 312.353 715.481 309.37 715.948 306.389C715.998 306.065 716.118 305.427 716.141 305.269C716.244 304.809 716.345 304.348 716.463 303.89C716.832 302.449 717.278 301.015 717.807 299.609C717.957 299.209 718.124 298.817 718.277 298.419C718.282 298.408 718.288 298.39 718.297 298.369C718.438 298.097 718.814 297.324 718.906 297.149C719.261 296.485 719.663 295.858 720.069 295.237C720.153 295.152 720.236 295.066 720.319 294.982C720.924 294.386 721.543 293.81 722.174 293.251C722.397 293.053 722.624 292.857 722.851 292.664C722.858 292.659 722.864 292.652 722.874 292.646C724.234 291.588 725.625 290.589 727.054 289.661C728.404 288.781 729.785 287.958 731.18 287.185C731.832 286.823 732.488 286.474 733.148 286.133C733.518 285.939 733.892 285.751 734.265 285.566C734.396 285.504 734.638 285.388 734.786 285.319C740.769 282.578 746.885 280.46 753.038 278.619C758.134 277.094 763.245 275.708 768.368 274.457C771.127 273.782 773.891 273.147 776.657 272.553C777.283 272.418 777.909 272.286 778.535 272.155C778.846 272.09 779.156 272.027 779.469 271.963C779.505 271.955 779.544 271.948 779.592 271.94C781.076 271.647 782.565 271.362 784.049 271.094C793.428 269.392 802.826 268.182 812.17 267.601C812.823 267.813 813.532 267.937 814.29 267.961C821.056 268.174 827.836 268.291 834.602 268.498C837.773 268.594 840.941 268.714 844.099 268.883C844.923 268.925 845.746 268.981 846.569 269.033C848.292 269.333 850.009 269.665 851.709 270.045C854.369 270.642 856.997 271.338 859.578 272.15C860.808 272.536 862.025 272.948 863.234 273.387C863.88 273.623 864.517 273.875 865.162 274.116C863.927 273.654 865.534 274.274 865.944 274.453C870.705 276.508 875.246 279.042 879.416 282.12C879.874 282.458 880.329 282.805 880.777 283.155C880.972 283.308 881.743 283.949 881.826 284.009C882.688 284.763 883.538 285.532 884.359 286.336C886.144 288.085 887.823 289.957 889.382 291.943C890.17 292.948 890.924 293.981 891.65 295.044C891.815 295.287 892.377 296.178 892.405 296.206C892.693 296.683 892.981 297.157 893.258 297.644C894.638 300.063 895.788 302.618 896.951 305.185C899.209 310.16 901.636 315.024 903.763 320.083C904.641 323.374 905.471 326.687 906.28 330.007C907.902 336.655 909.434 343.343 911.17 349.941C914.1 361.086 917.307 372.068 919.301 383.607C919.81 386.552 920.249 389.52 920.593 392.519C920.756 393.941 920.899 395.371 921.016 396.807C921.069 397.464 921.117 398.122 921.159 398.78C921.187 399.217 921.214 399.655 921.238 400.091C921.242 400.154 921.257 400.476 921.268 400.725C921.275 401.023 921.303 401.903 921.305 402.111C921.316 402.864 921.321 403.619 921.315 404.374C921.302 405.861 921.257 407.352 921.166 408.847C921.002 411.535 920.666 414.214 920.231 416.906C920.215 417.001 920.203 417.081 920.192 417.152C920.156 417.32 920.122 417.486 920.083 417.652C919.945 418.243 919.807 418.832 919.653 419.418C919.303 420.765 918.9 422.105 918.435 423.429C918.092 424.406 917.71 425.365 917.306 426.322C917.328 426.255 916.993 426.975 916.728 427.48C916.41 428.087 916.077 428.687 915.728 429.277C915.096 430.345 914.363 431.327 913.696 432.361C913.546 432.545 913.398 432.73 913.246 432.911C912.793 433.446 912.326 433.967 911.847 434.474C910.929 435.445 909.938 436.301 908.974 437.213C909.955 436.287 909.068 437.138 908.558 437.523C907.874 438.04 907.172 438.532 906.462 439.002C905.249 439.802 904.003 440.532 902.737 441.2C902.522 441.312 902.307 441.42 902.092 441.53C902.05 441.549 902.004 441.57 901.947 441.594C901.067 441.983 900.185 442.364 899.293 442.71C896.402 443.835 893.472 444.659 890.526 445.341C890.322 445.38 889.695 445.514 889.453 445.558C888.83 445.668 888.207 445.768 887.584 445.86C886.126 446.075 884.668 446.241 883.213 446.362C880.382 446.599 877.562 446.66 874.767 446.576C874.037 446.554 873.306 446.522 872.579 446.481C872.338 446.467 871.634 446.412 871.469 446.403C870.133 446.278 868.802 446.132 867.478 445.953C864.66 445.57 861.872 445.061 859.118 444.448C853.644 443.235 848.3 441.617 843.072 439.739C841.787 439.278 840.511 438.802 839.24 438.311C838.68 438.092 838.119 437.871 837.56 437.649C837.432 437.593 836.496 437.212 836.25 437.107C833.682 436.035 831.139 434.912 828.616 433.745C823.775 431.511 819.009 429.123 814.281 426.67C802.012 420.302 789.666 414.041 777.63 407.248C770.791 403.389 763.757 399.163 757.119 394.634ZM879.322 470.241C896.214 463.532 913.392 458.477 930.527 453.165C932.819 450.94 934.902 448.456 936.682 445.703C940.729 439.437 942.719 432.02 943.345 424.938C943.997 417.536 943.31 410.185 942.369 403.103C941.382 395.652 940.124 388.276 938.839 380.925C936.127 365.408 932.977 350.037 929.117 334.976C925.318 320.153 921.344 304.742 914.685 291.465C908.864 279.855 900.566 269.999 889.641 263.892C886.572 262.173 883.361 260.755 880.051 259.571C861.196 250.597 838.148 251.418 816.738 250.994C795.663 250.575 773.954 250.679 752.602 257.355C741.787 260.734 731.362 266.056 722.062 273.713C717.587 277.399 713.336 281.641 709.922 286.508C709.875 286.558 709.829 286.605 709.784 286.655C704.426 292.625 700.495 299.864 698.897 307.636C697.431 314.771 697.502 321.86 698.264 328.746C699.717 341.887 703.948 354.429 709.538 365.549C715.273 376.965 722.611 386.701 731.887 394.755C736.907 399.112 742.148 403.147 747.554 406.934C756.599 415.252 766.203 422.907 776.21 429.927C796.901 444.441 819.55 456.707 843.959 464.175C854.983 467.545 867.045 470.007 879.322 470.241Z" fill="#FFD866"/>
<path d="M43.1969 93.8253C30.1242 93.3857 17.3363 91.0826 5.18823 87.3276C-7.70419 83.3445 -19.6929 77.3982 -31.0935 70.6402C-56.1796 55.777 -78.5536 36.06 -94.8051 11.9412C-101.783 1.58656 -107.443 -9.60383 -111.935 -21.4039C-115.273 -30.1857 -118.142 -39.5213 -118.552 -49.2706C-118.89 -57.7828 -116.841 -66.9325 -109.444 -73.0013C-101.565 -79.4639 -90.7628 -80.9238 -81.5526 -80.3097C-71.2679 -79.6253 -61.4343 -76.3608 -52.409 -72.2582C-42.5462 -67.7768 -33.3195 -62.1431 -24.7025 -55.7961C-17.1512 -50.2383 -10.0181 -44.0855 -3.69305 -37.1836C5.53786 -27.1112 13.1103 -15.4719 19.7536 -3.47473C26.9749 9.55641 33.0881 23.2593 38.3608 37.3265C42.7913 49.1536 46.8263 61.2288 49.008 73.8966C50.1572 80.5022 50.7118 87.1554 50.6718 93.8563C48.1701 93.9244 45.6669 93.9051 43.1969 93.8253V93.8253ZM113.763 69.1658C98.1507 85.3258 76.8727 92.1964 56.0242 93.604C56.0499 91.1219 56.0016 88.6492 55.8479 86.1557C55.1567 74.4461 52.6931 63.1059 49.2618 52.1889C44.6764 37.6029 39.1548 23.3813 32.6852 9.68302C21.567 -13.8927 7.55976 -36.3009 -12.3561 -53.0839C-28.6901 -66.849 -48.0987 -79.097 -69.8331 -83.9468C-79.3365 -86.0661 -89.7575 -86.6833 -99.694 -83.5469C-109.958 -80.3141 -118.765 -73.3351 -122.096 -62.8695C-125.224 -53.0372 -123.849 -42.6718 -121.497 -33.4195C-118.919 -23.2225 -115.01 -13.3402 -110.463 -4.05027C-97.1041 23.224 -76.0867 45.8866 -51.781 63.6353C-29.5843 79.8442 -4.23513 92.7457 24.0774 97.2731C32.5588 98.6219 41.4869 99.3495 50.5142 99.1558C49.9214 110.219 47.6371 121.311 43.5329 132.253C35.7886 152.877 23.0136 171.798 10.0068 189.927C6.24987 195.156 2.42172 200.334 -1.41005 205.515C-3.54088 208.378 0.811982 210.889 2.93925 208.029C17.6495 188.232 32.4926 168.076 43.1325 146.041C50.4822 130.817 54.8896 114.943 55.8328 98.9347C71.8508 97.9177 87.9412 93.8121 102.15 84.9351C107.611 81.5326 112.668 77.4664 117.144 72.8133C119.625 70.2481 116.261 66.5841 113.763 69.1658" fill="#FF4949"/>
<path d="M-29.0047 331.083C-29.1539 331.025 -29.3094 330.978 -29.4689 330.937C-29.48 330.904 -29.4904 330.872 -29.5015 330.84C-29.3521 330.824 -29.204 330.803 -29.0578 330.775C-29.0401 330.878 -29.021 330.979 -29.0047 331.083ZM111.477 422.095C110.505 421.995 109.531 421.904 108.556 421.817C107.087 421.237 105.593 420.692 104.089 420.168C101.001 419.092 97.8603 418.128 94.7233 417.156C93.1606 416.671 91.5984 416.188 90.042 415.685C89.3451 415.459 88.647 415.231 87.953 414.997C87.612 414.881 87.2724 414.765 86.9315 414.646C86.7627 414.588 86.5952 414.53 86.4271 414.47C86.3922 414.458 86.177 414.38 86.0486 414.334C85.8759 414.269 85.4913 414.126 85.3932 414.09C85.0739 413.969 84.7567 413.845 84.4395 413.721C83.6505 413.408 82.8663 413.085 82.0856 412.759C80.4738 412.086 78.8752 411.392 77.2923 410.671C74.2978 409.312 71.3556 407.865 68.4814 406.323C65.5912 404.77 62.7684 403.121 60.0251 401.369C58.6836 400.514 57.3633 399.632 56.0623 398.728C55.8828 398.603 55.7033 398.477 55.5252 398.351C55.5045 398.336 55.4831 398.32 55.4537 398.299C55.1444 398.077 54.8364 397.854 54.5292 397.629C53.8653 397.142 53.2041 396.646 52.5511 396.147C41.4517 387.641 32.3322 377.069 23.6075 366.462C19.0998 360.98 14.9069 355.494 10.7403 349.557C8.05995 345.736 5.48239 341.847 3.01983 337.886C2.01329 335.861 1.021 333.83 0.0640215 331.782C-3.11818 324.97 -5.59087 318.677 -7.35609 311.232C-9.1611 303.616 -10.1255 295.78 -11.4143 288.032C-11.6037 286.89 -11.808 285.754 -12.0157 284.617C-26.849 286.694 -41.701 288.418 -56.535 290.499C-56.6358 290.513 -56.7372 290.522 -56.8379 290.53C-56.3847 310.815 -54.3663 331.047 -48.7704 350.18C-45.5741 361.11 -41.1961 371.602 -35.511 381.334C-34.9494 382.352 -34.3415 383.345 -33.7099 384.323C-31.9275 387.189 -30.0248 389.983 -28.0015 392.697C-26.5767 394.811 -25.1608 396.93 -23.7142 399.029C-19.1791 405.599 -14.4253 412.058 -9.03601 418.01C1.4348 429.571 15.1328 438.292 29.6523 445.202C35.5087 448.897 41.7454 452.069 48.478 454.395C51.6634 455.495 54.9516 456.309 58.3405 456.889C59.2146 457.198 60.0922 457.497 60.9774 457.781C67.3804 459.835 74.0865 461.223 80.8187 462.475C86.164 463.933 91.5649 465.258 97.1625 465.955C99.4011 466.233 101.668 466.427 103.953 466.478C104.028 466.48 104.106 466.475 104.182 466.471C107.754 456.566 111.62 446.728 115.079 436.8C116.635 432.329 118.128 427.837 119.384 423.312C116.8 422.743 114.15 422.372 111.477 422.095" fill="#2AB6C9"/>
</svg>
