<svg width="375" height="465" viewBox="0 0 375 465" fill="none" xmlns="http://www.w3.org/2000/svg">
<path fill-rule="evenodd" clip-rule="evenodd" d="M0 400.586V310.58C0.13916 311.461 0.275146 312.342 0.411011 313.224C1.03357 317.262 1.65625 321.3 2.59387 325.257C3.86511 330.618 5.64575 335.15 7.93738 340.055C8.62659 341.53 9.34119 342.993 10.066 344.451C11.8395 347.303 13.6957 350.104 15.6259 352.856C18.6265 357.131 21.646 361.082 24.8922 365.03C31.1752 372.668 37.7426 380.282 45.7357 386.407C46.2061 386.767 46.6821 387.124 47.1603 387.475C47.3815 387.637 47.6033 387.797 47.826 387.957C47.8472 387.972 47.8625 387.984 47.8776 387.995C48.0057 388.086 48.135 388.176 48.2643 388.266C49.2013 388.918 50.152 389.552 51.118 390.168C53.0936 391.43 55.1265 392.617 57.2079 393.735C59.2777 394.846 61.3965 395.888 63.553 396.867C64.6929 397.386 65.8441 397.886 67.0049 398.371C67.5671 398.606 68.1318 398.838 68.7 399.063L68.7278 399.074C68.947 399.16 69.1661 399.245 69.3868 399.329C69.4575 399.355 69.7344 399.458 69.8588 399.505L70.0256 399.565C70.0767 399.583 70.1191 399.598 70.1313 399.602C70.2524 399.646 70.373 399.688 70.4946 399.73C70.6274 399.776 70.76 399.822 70.8926 399.867C71.005 399.906 71.1176 399.944 71.2302 399.982C71.73 400.151 72.2328 400.315 72.7346 400.478C73.4276 400.702 74.1222 400.92 74.8174 401.137C75.2467 401.271 75.6763 401.404 76.1058 401.537L76.4937 401.657C78.6238 402.317 80.7539 402.976 82.8507 403.706C83.934 404.083 85.0093 404.476 86.0676 404.894C86.7697 404.956 87.4711 405.022 88.1709 405.094C90.0957 405.293 92.0045 405.561 93.8655 405.97C92.9608 409.229 91.8856 412.464 90.765 415.683C89.3209 419.828 87.7783 423.951 86.2356 428.074C85.1171 431.063 83.9985 434.053 82.9174 437.051L82.8818 437.053C82.8386 437.055 82.7952 437.057 82.7524 437.056C81.1068 437.019 79.4745 436.88 77.8624 436.679C73.8313 436.177 69.9419 435.224 66.0925 434.174C61.2444 433.272 56.4149 432.272 51.804 430.793C51.5288 430.705 51.2548 430.614 50.9814 430.522C50.6215 430.401 50.2628 430.277 49.9049 430.15C47.4644 429.733 45.0964 429.147 42.8025 428.354C37.9541 426.68 33.4626 424.395 29.2452 421.734C18.7891 416.758 8.92456 410.478 1.38403 402.152C0.91626 401.635 0.455078 401.113 0 400.586Z" fill="#2AB6C9"/>
<path fill-rule="evenodd" clip-rule="evenodd" d="M6.60794 77.9306C18.0216 81.2451 30.0667 83.1795 42.4156 83.3524C44.7488 83.382 47.1147 83.354 49.4806 83.2437C49.6421 76.9277 49.2408 70.6676 48.2765 64.4634C46.4482 52.5651 42.8571 41.2593 38.8875 30.1948C35.1779 19.861 30.9742 9.74854 26.1514 0H32.0472C32.7211 1.41016 33.3829 2.82623 34.0331 4.24713C39.8955 17.0375 44.8522 30.3387 48.9172 44.0005C51.9591 54.2258 54.0784 64.8678 54.5155 75.8907C54.6147 78.2378 54.6147 80.5673 54.5446 82.907C74.2776 81.1955 94.5175 74.3275 109.573 58.8092C111.982 56.33 115.094 59.721 112.702 62.1844C108.385 66.6523 103.53 70.5779 98.3054 73.8853C84.7103 82.5138 69.425 86.6802 54.2653 87.9345C53.0782 103.039 48.6189 118.081 41.3905 132.564C30.9263 153.527 16.5237 172.798 2.25337 191.726C1.61398 192.574 0.78215 192.939 0 192.958V187.023C3.11132 182.874 6.21304 178.721 9.26825 174.536C21.8976 157.21 34.3225 139.142 42.0236 119.562C46.1051 109.174 48.4692 98.6787 49.2338 88.2411C40.6972 88.5903 32.2714 88.0694 24.2792 86.9548C15.8932 85.7779 7.79927 83.8159 0 81.2168V75.8035C2.17374 76.5714 4.37572 77.2827 6.60794 77.9306Z" fill="#FF4949"/>
<path fill-rule="evenodd" clip-rule="evenodd" d="M375 261.209C361.651 261.903 348.225 263.704 334.927 267.862C323.228 271.517 311.951 277.274 301.89 285.557C297.05 289.544 292.452 294.133 288.758 299.398C288.738 299.42 288.717 299.441 288.697 299.463C288.667 299.494 288.638 299.525 288.609 299.558C282.813 306.016 278.561 313.846 276.832 322.254C275.246 329.972 275.323 337.64 276.147 345.089C277.719 359.306 282.296 372.872 288.342 384.902C294.546 397.251 302.485 407.783 312.519 416.496C317.949 421.209 323.618 425.574 329.466 429.67C339.251 438.668 349.641 446.949 360.466 454.543C365.216 457.875 370.061 461.097 375 464.184V437.129C370.641 434.802 366.303 432.438 362.002 430.01C354.604 425.836 346.995 421.264 339.813 416.365C338.123 414.787 336.454 413.184 334.785 411.582C332.192 409.092 329.598 406.602 326.924 404.202C326.368 403.703 325.81 403.205 325.252 402.707C321.068 398.969 316.877 395.225 313.094 391.02C311.06 388.757 309.159 386.358 307.443 383.791C307.398 383.711 307.205 383.402 307.031 383.121C306.911 382.928 306.8 382.748 306.753 382.667C306.561 382.337 306.373 382.004 306.188 381.668C305.958 381.251 305.733 380.829 305.512 380.404C304.698 378.83 303.961 377.206 303.304 375.533C301.533 371.023 300.218 365.483 298.906 359.951C298.797 359.49 298.687 359.029 298.578 358.568C297.065 352.222 295.774 345.762 295.046 339.132C294.874 337.548 294.732 335.954 294.634 334.35C294.611 333.985 294.59 333.618 294.57 333.249C294.567 333.221 294.561 333.007 294.553 332.814C294.551 332.719 294.55 332.617 294.548 332.534C294.547 332.448 294.545 332.384 294.544 332.37L294.541 331.933C294.537 331.471 294.533 331.01 294.537 330.548C294.557 327.356 294.771 324.13 295.277 320.905C295.307 320.706 295.362 320.399 295.408 320.138C295.444 319.939 295.475 319.767 295.486 319.693L295.515 319.561C295.616 319.107 295.717 318.653 295.833 318.202C296.234 316.643 296.716 315.091 297.288 313.57C297.378 313.33 297.474 313.093 297.569 312.856C297.646 312.665 297.722 312.475 297.796 312.284C297.801 312.271 297.809 312.252 297.818 312.229C297.86 312.148 297.922 312.025 297.991 311.886C298.171 311.522 298.404 311.046 298.477 310.909C298.861 310.191 299.295 309.513 299.735 308.841C299.776 308.8 299.816 308.759 299.856 308.718C299.906 308.666 299.955 308.615 300.005 308.565C300.659 307.92 301.329 307.297 302.012 306.693C302.253 306.479 302.498 306.267 302.744 306.058C302.752 306.052 302.758 306.045 302.769 306.038C304.24 304.893 305.745 303.813 307.29 302.81C308.752 301.858 310.245 300.967 311.754 300.13C312.459 299.739 313.169 299.361 313.883 298.993C314.284 298.783 314.687 298.58 315.091 298.379C315.151 298.351 315.232 298.313 315.318 298.272C315.436 298.216 315.563 298.156 315.655 298.113C322.127 295.147 328.743 292.856 335.4 290.864C340.911 289.215 346.441 287.716 351.983 286.362C354.968 285.632 357.958 284.945 360.949 284.302C361.626 284.156 362.304 284.013 362.98 283.872C363.255 283.815 363.529 283.759 363.805 283.703L363.991 283.664C364.03 283.656 364.072 283.648 364.124 283.639C365.73 283.323 367.34 283.014 368.946 282.724C370.963 282.358 372.981 282.013 375 281.69V261.209Z" fill="#FFD866"/>
</svg>
