<svg width="2110" height="1046" viewBox="0 0 2110 1046" fill="none" xmlns="http://www.w3.org/2000/svg">
<path d="M1616.53 802.725C1608.58 795.301 1600.88 787.587 1592.79 780.324C1584.07 772.507 1575.21 764.82 1567.31 756.043C1563.57 751.875 1560.07 747.457 1556.91 742.728C1556.77 742.48 1555.85 741.023 1555.63 740.658C1554.84 739.292 1554.08 737.902 1553.35 736.49C1551.85 733.592 1550.49 730.6 1549.28 727.519C1545.75 718.519 1543.2 707.293 1540.58 696.271C1537.79 684.582 1535.41 672.684 1534.07 660.472C1533.75 657.556 1533.49 654.62 1533.31 651.665C1533.27 650.992 1533.23 650.316 1533.2 649.637C1533.19 649.585 1533.18 649.192 1533.16 648.835C1533.16 648.483 1533.15 648.069 1533.15 648.018C1533.14 646.897 1533.12 645.782 1533.13 644.662C1533.17 638.783 1533.57 632.84 1534.5 626.901C1534.6 626.255 1534.83 624.983 1534.88 624.668C1535.09 623.752 1535.29 622.834 1535.52 621.922C1536.26 619.051 1537.15 616.193 1538.2 613.391C1538.5 612.595 1538.83 611.813 1539.14 611.021C1539.15 610.998 1539.16 610.963 1539.18 610.92C1539.46 610.379 1540.21 608.838 1540.39 608.49C1541.1 607.166 1541.9 605.918 1542.71 604.68C1542.88 604.51 1543.04 604.339 1543.21 604.173C1544.41 602.984 1545.64 601.837 1546.9 600.723C1547.35 600.329 1547.8 599.939 1548.25 599.554C1548.26 599.543 1548.28 599.531 1548.3 599.519C1551.01 597.409 1553.78 595.42 1556.62 593.571C1559.32 591.818 1562.07 590.177 1564.84 588.637C1566.14 587.916 1567.45 587.22 1568.77 586.541C1569.5 586.155 1570.25 585.78 1570.99 585.412C1571.25 585.289 1571.74 585.057 1572.03 584.92C1583.95 579.458 1596.14 575.238 1608.4 571.57C1618.55 568.532 1628.73 565.77 1638.94 563.278C1644.44 561.933 1649.95 560.666 1655.46 559.483C1656.7 559.214 1657.95 558.951 1659.2 558.691C1659.82 558.561 1660.44 558.436 1661.06 558.308C1661.13 558.293 1661.21 558.278 1661.3 558.262C1664.26 557.679 1667.23 557.111 1670.18 556.576C1688.87 553.185 1707.6 550.775 1726.21 549.618C1727.52 550.039 1728.93 550.285 1730.44 550.334C1743.92 550.759 1757.43 550.992 1770.91 551.404C1777.23 551.596 1783.54 551.834 1789.83 552.171C1791.47 552.255 1793.11 552.367 1794.75 552.469C1798.19 553.067 1801.61 553.729 1804.99 554.487C1810.29 555.676 1815.53 557.063 1820.67 558.68C1823.12 559.449 1825.55 560.271 1827.96 561.145C1829.24 561.616 1830.51 562.118 1831.8 562.598C1829.34 561.677 1832.54 562.913 1833.36 563.27C1842.84 567.365 1851.89 572.413 1860.2 578.545C1861.11 579.219 1862.02 579.91 1862.91 580.607C1863.3 580.913 1864.84 582.19 1865 582.309C1866.72 583.812 1868.41 585.344 1870.05 586.946C1873.61 590.431 1876.95 594.16 1880.06 598.117C1881.63 600.119 1883.13 602.179 1884.58 604.296C1884.9 604.78 1886.02 606.555 1886.08 606.612C1886.65 607.562 1887.23 608.507 1887.78 609.476C1890.53 614.296 1892.82 619.387 1895.14 624.502C1899.64 634.415 1904.47 644.106 1908.71 654.184C1910.46 660.741 1912.11 667.342 1913.72 673.957C1916.96 687.205 1920.01 700.529 1923.47 713.677C1929.31 735.881 1935.7 757.762 1939.67 780.754C1940.68 786.621 1941.56 792.536 1942.24 798.51C1942.57 801.345 1942.85 804.193 1943.09 807.054C1943.19 808.364 1943.29 809.674 1943.37 810.986C1943.43 811.855 1943.48 812.729 1943.53 813.598C1943.54 813.723 1943.57 814.364 1943.59 814.862C1943.6 815.455 1943.66 817.208 1943.66 817.621C1943.68 819.123 1943.69 820.627 1943.68 822.132C1943.66 825.094 1943.57 828.065 1943.38 831.043C1943.06 836.399 1942.39 841.737 1941.52 847.101C1941.49 847.29 1941.47 847.45 1941.44 847.59C1941.37 847.925 1941.3 848.256 1941.23 848.586C1940.95 849.764 1940.68 850.937 1940.37 852.106C1939.67 854.789 1938.87 857.46 1937.94 860.097C1937.26 862.045 1936.5 863.954 1935.69 865.862C1935.74 865.728 1935.07 867.163 1934.54 868.169C1933.91 869.378 1933.25 870.574 1932.55 871.75C1931.29 873.876 1929.83 875.834 1928.5 877.895C1928.2 878.261 1927.91 878.63 1927.6 878.989C1926.7 880.055 1925.77 881.094 1924.82 882.105C1922.99 884.039 1921.01 885.745 1919.09 887.561C1921.05 885.717 1919.28 887.413 1918.26 888.179C1916.9 889.209 1915.5 890.19 1914.09 891.125C1911.67 892.72 1909.19 894.174 1906.66 895.506C1906.24 895.728 1905.81 895.944 1905.38 896.163C1905.3 896.2 1905.21 896.242 1905.09 896.29C1903.34 897.066 1901.58 897.825 1899.8 898.514C1894.04 900.755 1888.2 902.397 1882.34 903.755C1881.93 903.834 1880.68 904.102 1880.2 904.189C1878.96 904.408 1877.71 904.608 1876.47 904.79C1873.57 905.22 1870.66 905.55 1867.76 905.791C1862.12 906.262 1856.51 906.384 1850.94 906.216C1849.48 906.172 1848.03 906.108 1846.58 906.029C1846.1 906 1844.69 905.891 1844.37 905.872C1841.7 905.623 1839.05 905.332 1836.41 904.977C1830.8 904.212 1825.24 903.198 1819.76 901.978C1808.85 899.559 1798.2 896.336 1787.79 892.594C1785.23 891.676 1782.68 890.727 1780.15 889.749C1779.03 889.313 1777.92 888.872 1776.8 888.43C1776.55 888.319 1774.68 887.56 1774.19 887.351C1769.08 885.215 1764.01 882.977 1758.98 880.652C1749.34 876.2 1739.84 871.442 1730.42 866.555C1705.97 853.867 1681.38 841.392 1657.4 827.858C1643.77 820.169 1629.75 811.749 1616.53 802.725ZM1860.01 953.368C1893.67 940 1927.89 929.928 1962.04 919.346C1966.6 914.913 1970.75 909.964 1974.3 904.477C1982.36 891.992 1986.33 877.214 1987.57 863.104C1988.87 848.356 1987.5 833.71 1985.63 819.598C1983.66 804.753 1981.16 790.057 1978.6 775.41C1973.19 744.493 1966.92 713.867 1959.23 683.859C1951.66 654.324 1943.74 623.619 1930.47 597.164C1918.87 574.033 1902.34 554.394 1880.57 542.226C1874.46 538.802 1868.06 535.976 1861.47 533.617C1823.9 515.737 1777.97 517.374 1735.32 516.529C1693.32 515.694 1650.07 515.901 1607.53 529.202C1585.98 535.935 1565.21 546.538 1546.68 561.795C1537.76 569.138 1529.29 577.591 1522.49 587.288C1522.4 587.387 1522.3 587.481 1522.21 587.582C1511.54 599.476 1503.71 613.899 1500.52 629.385C1497.6 643.602 1497.74 657.725 1499.26 671.445C1502.16 697.629 1510.59 722.617 1521.72 744.774C1533.15 767.521 1547.77 786.918 1566.25 802.966C1576.26 811.648 1586.7 819.686 1597.47 827.232C1615.49 843.805 1634.63 859.058 1654.57 873.044C1695.79 901.963 1740.92 926.402 1789.55 941.281C1811.52 947.996 1835.55 952.902 1860.01 953.368Z" fill="#FFD866"/>
<path d="M418.022 382.271C395.08 381.5 372.639 377.458 351.319 370.868C328.694 363.878 307.654 353.442 287.647 341.583C243.622 315.498 204.357 280.896 175.837 238.569C163.592 220.397 153.658 200.759 145.775 180.05C139.916 164.639 134.882 148.255 134.163 131.146C133.569 116.207 137.165 100.15 150.146 89.4998C163.973 78.1583 182.931 75.5963 199.094 76.674C217.143 77.875 234.4 83.604 250.239 90.804C267.548 98.6685 283.74 108.555 298.863 119.694C312.115 129.448 324.633 140.245 335.733 152.358C351.933 170.034 365.222 190.461 376.881 211.515C389.554 234.384 400.282 258.432 409.535 283.119C417.311 303.875 424.392 325.066 428.221 347.297C430.237 358.89 431.211 370.566 431.14 382.326C426.75 382.445 422.357 382.411 418.022 382.271ZM541.862 338.995C514.463 367.355 477.121 379.413 440.533 381.883C440.579 377.527 440.494 373.187 440.224 368.811C439.011 348.262 434.688 328.36 428.666 309.202C420.619 283.604 410.929 258.646 399.575 234.606C380.063 193.232 355.481 153.907 320.53 124.454C291.865 100.297 257.804 78.8022 219.661 70.2912C202.983 66.5718 184.695 65.4887 167.257 70.9929C149.244 76.6662 133.788 88.914 127.942 107.281C122.454 124.536 124.866 142.726 128.993 158.964C133.518 176.859 140.378 194.202 148.358 210.505C171.802 258.37 208.686 298.142 251.342 329.289C290.295 357.735 334.782 380.376 384.469 388.322C399.353 390.689 415.021 391.966 430.864 391.626C429.824 411.042 425.815 430.507 418.612 449.709C405.021 485.904 382.602 519.11 359.776 550.924C353.182 560.101 346.464 569.188 339.74 578.28C336 583.305 343.639 587.712 347.372 582.692C373.188 547.95 399.237 512.576 417.909 473.906C430.808 447.19 438.542 419.332 440.198 391.238C468.308 389.453 496.546 382.248 521.482 366.669C531.065 360.698 539.94 353.562 547.796 345.396C552.149 340.894 546.246 334.464 541.862 338.995Z" fill="#FF4949"/>
<path d="M278.331 702.375C278.038 702.262 277.732 702.17 277.418 702.089C277.396 702.024 277.376 701.962 277.354 701.897C277.648 701.866 277.939 701.825 278.227 701.77C278.262 701.972 278.299 702.172 278.331 702.375ZM554.633 881.381C552.722 881.183 550.806 881.004 548.889 880.834C545.998 879.693 543.061 878.62 540.103 877.591C534.028 875.474 527.852 873.577 521.682 871.666C518.608 870.713 515.536 869.761 512.474 868.773C511.104 868.328 509.731 867.879 508.366 867.419C507.695 867.192 507.027 866.963 506.356 866.73C506.025 866.616 505.695 866.5 505.365 866.382C505.296 866.359 504.873 866.206 504.62 866.116C504.28 865.988 503.524 865.707 503.331 865.636C502.703 865.397 502.079 865.153 501.455 864.909C499.903 864.295 498.361 863.66 496.826 863.018C493.655 861.694 490.511 860.328 487.398 858.912C481.508 856.239 475.721 853.392 470.069 850.358C464.384 847.305 458.832 844.062 453.436 840.616C450.798 838.933 448.201 837.2 445.642 835.422C445.289 835.175 444.936 834.929 444.586 834.68C444.545 834.651 444.503 834.619 444.445 834.577C443.837 834.141 443.231 833.702 442.627 833.26C441.321 832.301 440.021 831.327 438.737 830.344C416.906 813.615 398.97 792.821 381.81 771.959C372.944 761.179 364.697 750.387 356.502 738.711C351.231 731.195 346.161 723.546 341.318 715.756C339.338 711.774 337.386 707.778 335.504 703.751C329.245 690.353 324.382 677.975 320.91 663.333C317.36 648.354 315.463 632.942 312.928 617.702C312.556 615.457 312.154 613.221 311.745 610.987C282.571 615.07 253.36 618.462 224.184 622.556C223.986 622.582 223.786 622.6 223.588 622.615C224.48 662.512 228.45 702.305 239.456 739.936C245.742 761.434 254.353 782.07 265.535 801.21C266.639 803.213 267.835 805.166 269.077 807.09C272.583 812.726 276.325 818.222 280.304 823.56C283.107 827.717 285.891 831.886 288.737 836.013C297.656 848.936 307.006 861.639 317.606 873.345C338.2 896.084 365.142 913.237 393.699 926.828C405.217 934.094 417.484 940.334 430.726 944.907C436.991 947.072 443.458 948.673 450.123 949.813C451.842 950.42 453.569 951.009 455.31 951.568C467.903 955.607 481.093 958.338 494.334 960.801C504.847 963.668 515.47 966.273 526.479 967.644C530.882 968.191 535.34 968.573 539.834 968.673C539.983 968.676 540.135 968.666 540.285 968.66C547.31 949.178 554.914 929.829 561.718 910.301C564.779 901.508 567.715 892.674 570.186 883.774C565.103 882.655 559.89 881.925 554.633 881.381Z" fill="#2AB6C9"/>
</svg>
