<svg width="374" height="103" viewBox="0 0 374 103" fill="none" xmlns="http://www.w3.org/2000/svg">
<path fill-rule="evenodd" clip-rule="evenodd" d="M0 0L15.625 9.80952C31.25 19.619 62.5 39.2381 93.75 39.2381C125 39.2381 156.25 19.619 187.5 19.619C218.75 19.619 250 39.2381 281.25 46.5952C312.5 53.9524 343.75 49.0476 359.375 46.5952L375 44.1429V103H359.375C343.75 103 312.5 103 281.25 103C250 103 218.75 103 187.5 103C156.25 103 125 103 93.75 103C62.5 103 31.25 103 15.625 103H0V0Z" fill="white"/>
</svg>
